<svg width="42" height="37" viewBox="0 0 42 37" fill="none" xmlns="http://www.w3.org/2000/svg">
<path d="M2.64479 3.53122C2.28271 3.53122 1.98535 3.23803 1.98535 2.87499C1.98535 2.51226 2.27598 2.21875 2.63838 2.21875H2.64479C3.00719 2.21875 3.30103 2.51226 3.30103 2.87499C3.30103 3.23803 3.00719 3.53122 2.64479 3.53122Z" fill="black"/>
<path d="M4.61354 3.53122C4.25146 3.53122 3.9541 3.23803 3.9541 2.87499C3.9541 2.51226 4.24473 2.21875 4.60713 2.21875H4.61354C4.97595 2.21875 5.26978 2.51226 5.26978 2.87499C5.26978 3.23803 4.97595 3.53122 4.61354 3.53122Z" fill="black"/>
<path d="M6.58229 3.53122C6.22021 3.53122 5.92285 3.23803 5.92285 2.87499C5.92285 2.51226 6.21284 2.21875 6.57524 2.21875H6.58229C6.94469 2.21875 7.23853 2.51226 7.23853 2.87499C7.23853 3.23803 6.94469 3.53122 6.58229 3.53122Z" fill="black"/>
<path d="M26.9054 28.4681H0.667951C0.304909 28.4681 0.0117188 28.1749 0.0117188 27.8119V4.18748C0.0117188 3.82476 0.304909 3.53125 0.667951 3.53125H33.4796C33.8423 3.53125 34.1358 3.82476 34.1358 4.18748V19.9371C34.1358 20.3001 33.8423 20.5933 33.4796 20.5933C33.1165 20.5933 32.8233 20.3001 32.8233 19.9371V4.84372H1.32418V27.1556H26.9054C27.2684 27.1556 27.5616 27.4491 27.5616 27.8119C27.5616 28.1749 27.2684 28.4681 26.9054 28.4681Z" fill="black"/>
<path d="M0.656236 3.53119C0.293191 3.53119 0 3.238 0 2.87496C0 1.78967 0.883419 0.90625 1.96871 0.90625C2.33175 0.90625 2.62494 1.19976 2.62494 1.56249C2.62494 1.92553 2.33175 2.21872 1.96871 2.21872C1.60662 2.21872 1.31247 2.51287 1.31247 2.87496C1.31247 3.238 1.01928 3.53119 0.656236 3.53119Z" fill="black"/>
<path d="M0.656236 4.84369C0.293191 4.84369 0 4.5505 0 4.18746V2.87499C0 2.51226 0.293191 2.21875 0.656236 2.21875C1.01928 2.21875 1.31247 2.51226 1.31247 2.87499V4.18746C1.31247 4.5505 1.01928 4.84369 0.656236 4.84369Z" fill="black"/>
<path d="M33.4682 3.53119C33.1052 3.53119 32.812 3.238 32.812 2.87496C32.812 2.51287 32.5178 2.21872 32.1557 2.21872C31.7927 2.21872 31.4995 1.92553 31.4995 1.56249C31.4995 1.19976 31.7927 0.90625 32.1557 0.90625C33.241 0.90625 34.1245 1.78967 34.1245 2.87496C34.1245 3.238 33.8313 3.53119 33.4682 3.53119Z" fill="black"/>
<path d="M33.4682 4.84369C33.1052 4.84369 32.812 4.5505 32.812 4.18746V2.87499C32.812 2.51226 33.1052 2.21875 33.4682 2.21875C33.8313 2.21875 34.1245 2.51226 34.1245 2.87499V4.18746C34.1245 4.5505 33.8313 4.84369 33.4682 4.84369Z" fill="black"/>
<path d="M32.1554 2.21872H1.96873C1.60569 2.21872 1.3125 1.92553 1.3125 1.56248C1.3125 1.19976 1.60569 0.90625 1.96873 0.90625H32.1554C32.5185 0.90625 32.8117 1.19976 32.8117 1.56248C32.8117 1.92553 32.5185 2.21872 32.1554 2.21872Z" fill="black"/>
<path d="M2.62498 28.4681C2.26194 28.4681 1.96875 28.1749 1.96875 27.8119V4.18748C1.96875 3.82476 2.26194 3.53125 2.62498 3.53125C2.98803 3.53125 3.28122 3.82476 3.28122 4.18748V27.8119C3.28122 28.1749 2.98803 28.4681 2.62498 28.4681Z" fill="black"/>
<path d="M16.406 7.46872H5.24999C4.88694 7.46872 4.59375 7.17553 4.59375 6.81249C4.59375 6.44976 4.88694 6.15625 5.24999 6.15625H16.406C16.769 6.15625 17.0622 6.44976 17.0622 6.81249C17.0622 7.17553 16.769 7.46872 16.406 7.46872Z" fill="black"/>
<path d="M18.3747 10.0937H6.56249C6.19944 10.0937 5.90625 9.80053 5.90625 9.43749C5.90625 9.07476 6.19944 8.78125 6.56249 8.78125H18.3747C18.7378 8.78125 19.031 9.07476 19.031 9.43749C19.031 9.80053 18.7378 10.0937 18.3747 10.0937Z" fill="black"/>
<path d="M13.1244 23.2265H6.562C6.19895 23.2265 5.90576 22.933 5.90576 22.5703C5.90576 22.2073 6.19895 21.9141 6.562 21.9141H13.1244C13.4874 21.9141 13.7806 22.2073 13.7806 22.5703C13.7806 22.933 13.4874 23.2265 13.1244 23.2265Z" fill="black"/>
<path d="M22.3125 10.0937H21C20.6369 10.0937 20.3438 9.80053 20.3438 9.43749C20.3438 9.07476 20.6369 8.78125 21 8.78125H22.3125C22.6755 8.78125 22.9687 9.07476 22.9687 9.43749C22.9687 9.80053 22.6755 10.0937 22.3125 10.0937Z" fill="black"/>
<path d="M9.18691 25.8437H5.2495C4.88645 25.8437 4.59326 25.5505 4.59326 25.1875C4.59326 24.8248 4.88645 24.5312 5.2495 24.5312H9.18691C9.54996 24.5312 9.84315 24.8248 9.84315 25.1875C9.84315 25.5505 9.54996 25.8437 9.18691 25.8437Z" fill="black"/>
<path d="M10.4999 12.7187H7.87499C7.51194 12.7187 7.21875 12.4255 7.21875 12.0625C7.21875 11.6998 7.51194 11.4062 7.87499 11.4062H10.4999C10.863 11.4062 11.1562 11.6998 11.1562 12.0625C11.1562 12.4255 10.863 12.7187 10.4999 12.7187Z" fill="black"/>
<path d="M25.5935 12.7187H13.125C12.7619 12.7187 12.4688 12.4255 12.4688 12.0625C12.4688 11.6998 12.7619 11.4062 13.125 11.4062H25.5935C25.9565 11.4062 26.2497 11.6998 26.2497 12.0625C26.2497 12.4255 25.9565 12.7187 25.5935 12.7187Z" fill="black"/>
<path d="M21.6559 15.3437H7.87499C7.51194 15.3437 7.21875 15.0505 7.21875 14.6875C7.21875 14.3248 7.51194 14.0312 7.87499 14.0312H21.6559C22.019 14.0312 22.3122 14.3248 22.3122 14.6875C22.3122 15.0505 22.019 15.3437 21.6559 15.3437Z" fill="black"/>
<path d="M15.0936 17.9687H7.87499C7.51194 17.9687 7.21875 17.6755 7.21875 17.3125C7.21875 16.9498 7.51194 16.6562 7.87499 16.6562H15.0936C15.4566 16.6562 15.7498 16.9498 15.7498 17.3125C15.7498 17.6755 15.4566 17.9687 15.0936 17.9687Z" fill="black"/>
<path d="M21.6555 20.5937H11.812C11.449 20.5937 11.1558 20.3005 11.1558 19.9375C11.1558 19.5748 11.449 19.2812 11.812 19.2812H21.6555C22.0186 19.2812 22.3118 19.5748 22.3118 19.9375C22.3118 20.3005 22.0186 20.5937 21.6555 20.5937Z" fill="black"/>
<path d="M9.18697 20.5937H7.8745C7.51145 20.5937 7.21826 20.3005 7.21826 19.9375C7.21826 19.5748 7.51145 19.2812 7.8745 19.2812H9.18697C9.55001 19.2812 9.8432 19.5748 9.8432 19.9375C9.8432 20.3005 9.55001 20.5937 9.18697 20.5937Z" fill="black"/>
<path d="M26.9062 15.3437H24.2812C23.9182 15.3437 23.625 15.0505 23.625 14.6875C23.625 14.3248 23.9182 14.0312 24.2812 14.0312H26.9062C27.2692 14.0312 27.5624 14.3248 27.5624 14.6875C27.5624 15.0505 27.2692 15.3437 26.9062 15.3437Z" fill="black"/>
<path d="M35.437 36.3434H31.4995C31.1365 36.3434 30.8433 36.0502 30.8433 35.6871V34.5374C30.1614 34.2712 29.527 33.9004 28.948 33.4317L27.8678 34.0014C27.5535 34.1654 27.1696 34.0539 26.993 33.7489L25.0243 30.3389C24.9353 30.1848 24.9128 29.9996 24.9622 29.8291C25.0112 29.657 25.1288 29.5141 25.2871 29.4308L26.331 28.8806C26.2772 28.5217 26.2497 28.1641 26.2497 27.8123C26.2497 27.4547 26.2779 27.0907 26.3343 26.7264L25.2672 26.116C25.1163 26.0295 25.0054 25.8856 24.9596 25.7177C24.9135 25.5498 24.9378 25.37 25.025 25.2185L26.9937 21.8085C27.1744 21.496 27.5733 21.3865 27.8883 21.5669L28.9618 22.1818C29.5366 21.7187 30.1669 21.3525 30.8433 21.0878V19.9375C30.8433 19.5748 31.1365 19.2812 31.4995 19.2812H35.437C35.8 19.2812 36.0932 19.5748 36.0932 19.9375V21.0872C36.769 21.3512 37.3983 21.7181 37.9741 22.1805L39.0488 21.5656C39.3625 21.3858 39.7621 21.4954 39.9428 21.8072L41.9115 25.2178C41.9987 25.3687 42.0224 25.5485 41.9769 25.717C41.9317 25.8856 41.8208 26.0295 41.6693 26.1153L40.6022 26.7257C40.6586 27.0907 40.6868 27.4547 40.6868 27.8123C40.6868 28.1641 40.6593 28.5217 40.6048 28.8806L41.6488 29.4308C41.8071 29.5141 41.9247 29.6577 41.9737 29.8291C42.023 30.0002 42.0006 30.1848 41.9115 30.3389L39.9428 33.7489C39.7663 34.0546 39.3824 34.1661 39.068 34.0014L37.9879 33.4317C37.4089 33.9004 36.7744 34.2705 36.0926 34.5374V35.6871C36.0932 36.0502 35.8 36.3434 35.437 36.3434ZM32.1558 35.0309H34.7807V34.0735C34.7807 33.7867 34.9666 33.5335 35.2402 33.4474C36.0599 33.1897 36.8045 32.7565 37.4544 32.1599C37.6598 31.9718 37.9587 31.9343 38.2048 32.0628L39.1219 32.5466L40.4334 30.2738L39.566 29.8166C39.3048 29.6788 39.1677 29.3834 39.2305 29.094C39.3263 28.663 39.3744 28.2318 39.3744 27.8123C39.3744 27.3926 39.3263 26.9613 39.2305 26.5303C39.169 26.2493 39.2968 25.9618 39.5448 25.8186L40.4446 25.3043L39.1321 23.0296L38.2228 23.5503C37.976 23.6919 37.6636 23.6564 37.4537 23.4641C36.8026 22.8678 36.0576 22.4346 35.2396 22.1773C34.9659 22.0914 34.7801 21.8373 34.7801 21.5512V20.5937H32.1551V21.5512C32.1551 21.8379 31.9693 22.0914 31.6956 22.1773C30.8766 22.4352 30.1313 22.8678 29.4808 23.4648C29.2703 23.6576 28.9586 23.6919 28.7112 23.5509L27.8031 23.0306L26.4906 25.3043L27.3901 25.8186C27.639 25.9618 27.7662 26.2493 27.7044 26.5303C27.6102 26.9613 27.5621 27.3926 27.5621 27.8123C27.5621 28.2318 27.6102 28.663 27.706 29.094C27.7694 29.3827 27.6323 29.6788 27.3705 29.8166L26.5031 30.2738L27.8146 32.5466L28.7317 32.0628C28.9762 31.9343 29.2767 31.9718 29.4821 32.1599C30.132 32.7565 30.8766 33.1897 31.6963 33.4474C31.9699 33.5335 32.1558 33.7873 32.1558 34.0735V35.0309Z" fill="black"/>
<path d="M33.4682 32.406C30.9358 32.406 28.8745 30.3451 28.8745 27.8124C28.8745 25.2801 30.9358 23.2188 33.4682 23.2188C36.0005 23.2188 38.0618 25.2801 38.0618 27.8124C38.0618 30.3451 36.0005 32.406 33.4682 32.406ZM33.4682 24.5312C31.659 24.5312 30.187 26.0033 30.187 27.8124C30.187 29.6219 31.659 31.0936 33.4682 31.0936C35.2773 31.0936 36.7493 29.6219 36.7493 27.8124C36.7493 26.0033 35.2773 24.5312 33.4682 24.5312Z" fill="black"/>
<path d="M33.4682 30.4374C32.0205 30.4374 30.8433 29.2601 30.8433 27.8124C30.8433 26.3648 32.0205 25.1875 33.4682 25.1875C34.9159 25.1875 36.0931 26.3648 36.0931 27.8124C36.0931 29.2601 34.9159 30.4374 33.4682 30.4374ZM33.4682 26.5C32.7444 26.5 32.1557 27.0886 32.1557 27.8124C32.1557 28.5363 32.7444 29.1249 33.4682 29.1249C34.1921 29.1249 34.7807 28.5363 34.7807 27.8124C34.7807 27.0886 34.1921 26.5 33.4682 26.5Z" fill="black"/>
</svg>
